# xmcd CD database file
# Copyright (C) 1995-1998 Ti Kan
#
# Track frame offsets:
#	150
#	14540
#	32995
#	50212
#	69187
#	87947
#	103010
#	117052
#	139622
#	153235
#	168697
#	188940
#
# Disc length: 2757 seconds
#
# Revision: 1
# Processed by: cddbd v1.4b41PL1 Copyright (c) Steve Scherf et al.
# Submitted via: CDex 1.30
#
DISCID=a10ac30c
DTITLE=Monia - Monia
DYEAR=2001
DGENRE=Country
TTITLE0=I Should Be Sleeping
TTITLE1=I´m Not So Tough
TTITLE2=With This Kiss
TTITLE3=Dance
TTITLE4=I Can Do Anything
TTITLE5=Almost Mine
TTITLE6=I Remeber This
TTITLE7=Walk On Water
TTITLE8=I´m All Over That
TTITLE9=The Room
TTITLE10=You Don´t Know How It Feels
TTITLE11=My Heart Can´t Tell You No
EXTD=\nYEAR: 2001  ID3G:   2
EXTT0=
EXTT1=
EXTT2=
EXTT3=
EXTT4=
EXTT5=
EXTT6=
EXTT7=
EXTT8=
EXTT9=
EXTT10=
EXTT11=
PLAYORDER=
